<svg version="1.1" id="Layer_1" xmlns="http://www.w3.org/2000/svg" xmlns:xlink="http://www.w3.org/1999/xlink" x="0px" y="0px"
	 width="100%" viewBox="0 0 2000 2250" enable-background="new 0 0 2000 2250" xml:space="preserve">
<path fill="#4C6971" opacity="1.000000" stroke="none" 
	d="
M2001.374146,931.614441 
	C2002.000000,1371.915161 2002.000000,1811.830200 2002.000000,2251.872559 
	C1335.546753,2251.872559 669.093445,2251.872559 2.000000,2251.872559 
	C2.000000,1851.291748 2.000000,1450.583252 2.000000,1048.937256 
	C8.271951,1040.943970 10.107536,1047.511719 12.459231,1051.553589 
	C28.073492,1078.389282 40.972561,1106.561890 53.268993,1135.021729 
	C72.392227,1179.282227 85.994202,1225.172729 93.929405,1272.746826 
	C94.759064,1277.720947 95.061874,1282.666260 94.974365,1287.666504 
	C94.777695,1298.905029 91.058334,1304.246216 80.148590,1306.932861 
	C72.768539,1308.750488 69.423332,1312.941406 69.164207,1320.221313 
	C68.231880,1346.413330 70.497269,1371.876953 80.886261,1396.570435 
	C108.156403,1461.388794 138.136963,1525.004150 165.760391,1589.657837 
	C183.048523,1630.121216 199.535202,1670.911133 212.812408,1712.894653 
	C216.214584,1723.652466 221.596191,1731.364502 232.133255,1736.712524 
	C247.655594,1744.590454 255.662827,1758.815308 258.831299,1775.708496 
	C262.459808,1795.054810 266.529602,1814.277710 273.588531,1832.729370 
	C280.643616,1851.170776 289.466644,1868.588623 301.440491,1884.462891 
	C321.401398,1910.926025 347.527344,1927.316284 380.523254,1934.362305 
	C382.264343,1934.590576 383.262848,1934.694336 385.020081,1934.818604 
	C407.382690,1935.898804 429.063751,1933.433472 450.641418,1936.745728 
	C468.243866,1939.447632 484.122925,1946.027344 497.522522,1957.549316 
	C526.962036,1982.863770 561.624695,1993.748291 599.636047,1994.726929 
	C611.311584,1995.027466 621.532166,1997.253906 631.845825,2002.820435 
	C674.057190,2025.603638 717.612488,2045.866577 758.840149,2070.510010 
	C765.423279,2074.445312 771.658569,2078.915283 778.214600,2082.888428 
	C784.298401,2086.575439 790.378113,2087.501221 797.182800,2084.337891 
	C806.684204,2079.921143 811.089355,2082.536865 812.774963,2092.872070 
	C815.463318,2109.356201 815.719971,2109.337402 832.467468,2107.425537 
	C866.529358,2103.537598 900.642456,2100.496094 934.894775,2098.377930 
	C984.388550,2095.317139 1033.347534,2097.739502 1082.049072,2106.725342 
	C1086.314453,2107.512451 1090.596313,2108.336914 1094.693848,2109.687012 
	C1108.583008,2114.263428 1122.130249,2114.474121 1136.849854,2111.919678 
	C1159.474731,2107.993408 1182.032593,2111.504395 1203.047485,2121.765381 
	C1214.124512,2127.173828 1225.297852,2132.404053 1235.919922,2138.702393 
	C1241.716797,2142.139648 1247.869385,2144.583740 1254.657104,2145.184814 
	C1261.804810,2145.817627 1266.928345,2143.085938 1266.764893,2135.501709 
	C1266.578491,2126.854980 1271.391235,2123.125732 1278.347900,2120.156738 
	C1302.185913,2109.983643 1327.537476,2105.834961 1352.771973,2101.277344 
	C1359.475586,2100.066895 1364.959106,2103.389404 1369.897461,2107.810303 
	C1376.897461,2114.076904 1382.112061,2121.907959 1388.602295,2128.602783 
	C1390.904419,2130.977539 1393.387451,2133.839355 1397.135620,2132.554199 
	C1401.048584,2131.212402 1400.666626,2127.313965 1400.957397,2124.059326 
	C1403.133057,2099.717041 1406.557617,2085.159912 1441.576050,2086.808594 
	C1460.269531,2087.688477 1463.170654,2084.370361 1462.830200,2065.513916 
	C1462.647583,2055.391113 1465.865234,2047.593018 1473.080933,2040.652954 
	C1492.781616,2021.703979 1509.574341,2000.009033 1529.013550,1980.802612 
	C1538.270142,1971.656860 1548.193237,1963.305542 1559.223022,1956.295288 
	C1566.142090,1951.897949 1572.148193,1952.462891 1578.204834,1958.053101 
	C1583.557373,1962.993286 1587.637329,1969.173706 1594.686157,1974.862183 
	C1594.788452,1964.031982 1589.592651,1956.922119 1584.662720,1949.837158 
	C1581.042969,1944.635132 1575.929688,1940.660522 1572.008545,1935.693481 
	C1563.680176,1925.143799 1566.109497,1916.470459 1578.744385,1911.942017 
	C1589.090576,1908.234009 1599.424927,1904.418823 1610.191772,1902.044922 
	C1620.098267,1899.860718 1629.644287,1900.546021 1638.407715,1906.181396 
	C1635.767334,1894.835205 1636.914795,1891.768188 1646.090576,1885.748413 
	C1652.938110,1881.256348 1660.325439,1878.696045 1668.660522,1878.959351 
	C1674.648438,1879.148438 1680.659546,1879.199585 1686.643066,1878.717651 
	C1703.547241,1877.356689 1714.187622,1870.608154 1715.764038,1853.973877 
	C1717.750244,1833.015503 1729.078369,1818.621338 1741.822876,1804.123047 
	C1782.235107,1758.149658 1816.811523,1708.051392 1846.395874,1654.535522 
	C1872.358154,1607.571167 1894.498413,1558.812134 1912.876831,1508.162231 
	C1894.003784,1522.909180 1877.297485,1539.680908 1863.495361,1559.308960 
	C1856.995117,1568.552734 1851.673340,1578.635742 1843.523926,1586.714233 
	C1838.804932,1591.392090 1833.387329,1594.900024 1826.779663,1594.273193 
	C1818.307983,1593.469482 1814.786133,1597.888184 1812.248413,1604.860718 
	C1810.715454,1609.072021 1810.476562,1614.120117 1805.317139,1616.916260 
	C1804.132080,1616.952271 1803.657349,1616.951294 1802.472168,1616.894775 
	C1799.694824,1615.983154 1796.892334,1615.848511 1796.736816,1612.826538 
	C1796.189575,1602.197510 1791.143311,1606.345337 1786.673950,1609.845581 
	C1717.760620,1663.817383 1647.944458,1716.588989 1576.739502,1767.504395 
	C1528.006958,1802.350952 1478.571899,1836.178833 1427.943481,1868.225220 
	C1419.773804,1873.396240 1411.003906,1877.135742 1400.842407,1877.129883 
	C1392.996216,1877.125488 1386.736206,1874.658813 1381.065430,1869.347046 
	C1372.056396,1860.908203 1371.133057,1861.094604 1360.917480,1868.854004 
	C1357.478882,1871.465820 1354.192993,1874.327026 1350.348267,1876.362549 
	C1338.281860,1882.750488 1328.562866,1877.542603 1327.017090,1863.880249 
	C1326.867554,1862.557983 1326.820679,1861.224976 1325.359863,1859.184814 
	C1306.624268,1854.347168 1301.327148,1856.501587 1292.560181,1871.558228 
	C1289.634644,1876.582397 1286.027100,1880.449097 1279.904541,1876.982422 
	C1273.850220,1873.554443 1271.936157,1876.671387 1271.368652,1881.766602 
	C1270.463867,1889.890503 1268.039795,1894.433838 1258.663330,1890.140625 
	C1253.502319,1887.777466 1250.184082,1891.902954 1246.990845,1895.564453 
	C1241.303101,1902.085449 1237.339355,1901.995361 1232.010132,1895.084473 
	C1226.807251,1888.337280 1222.291260,1881.090454 1218.230835,1875.374268 
	C1220.805420,1885.486450 1219.476807,1888.913208 1209.062012,1895.540649 
	C1205.718506,1897.668579 1205.225098,1901.042725 1205.319702,1904.288940 
	C1205.530396,1911.527344 1202.050049,1915.971436 1196.025146,1919.412231 
	C1191.709839,1921.876831 1187.504639,1924.926147 1184.507812,1928.921387 
	C1175.104004,1941.456665 1162.048096,1946.013916 1147.139282,1946.865601 
	C1112.758911,1948.829590 1078.978638,1954.585571 1045.672363,1963.166504 
	C1037.685303,1965.224243 1029.992310,1965.103149 1022.025513,1963.091553 
	C960.221375,1947.485718 897.489807,1937.005371 834.218445,1929.635986 
	C805.795288,1926.325562 777.028809,1926.240356 748.811218,1921.030029 
	C702.658997,1912.507935 660.213501,1894.535522 620.520020,1869.802612 
	C608.690613,1862.431641 608.630188,1859.204224 619.460266,1850.917969 
	C623.938538,1847.491699 628.034180,1843.748413 630.530823,1836.793335 
	C617.161743,1843.069214 604.076050,1845.173340 591.111816,1847.883423 
	C584.534485,1849.258301 579.563721,1847.855469 574.933716,1843.124023 
	C560.018433,1827.881714 544.246094,1813.526367 528.814514,1798.817017 
	C491.682587,1763.422241 453.521912,1729.138672 416.242523,1693.916748 
	C372.173248,1652.279541 328.098419,1610.616333 287.181366,1565.776611 
	C270.572083,1547.575317 252.718765,1530.411621 238.965836,1509.827026 
	C219.752243,1481.069336 207.746292,1448.803955 195.024338,1416.927246 
	C189.464691,1402.996826 183.876205,1389.079956 177.721924,1375.400757 
	C175.475723,1370.408203 172.811691,1366.141846 166.122269,1366.149414 
	C147.629166,1366.170410 135.681458,1354.271240 135.044189,1335.683228 
	C134.571793,1321.904175 139.612228,1314.595215 152.983963,1311.197144 
	C159.786774,1309.468506 158.840256,1304.867310 158.180054,1300.290527 
	C154.042450,1271.606323 150.019638,1242.905762 145.869354,1214.223633 
	C144.342880,1203.674438 142.750092,1193.130615 141.329575,1182.570068 
	C139.264618,1167.218506 141.762161,1152.195557 149.873917,1139.197632 
	C167.180176,1111.467041 169.897324,1080.389771 172.875427,1049.164185 
	C177.237762,1003.424377 182.740723,957.805115 187.885590,912.149597 
	C190.531830,888.666748 192.136200,865.070618 196.228790,841.737610 
	C211.873306,752.543945 248.538620,672.874329 304.227875,601.719849 
	C339.046783,557.231506 378.869873,517.520325 420.173553,479.145386 
	C446.768341,454.436432 473.158905,429.506042 500.284760,405.380829 
	C515.576111,391.780975 533.624329,382.241943 551.212646,372.050598 
	C598.209106,344.819031 644.245605,315.940948 691.835754,289.730621 
	C759.847168,252.273300 831.236450,224.229080 908.962097,215.550186 
	C940.306519,212.050247 971.832153,208.752335 1003.573669,212.564270 
	C1016.467407,214.112686 1029.540527,213.398010 1042.303467,210.070343 
	C1056.029175,206.491623 1064.232178,197.817581 1066.272949,183.793823 
	C1067.564697,174.917511 1068.809814,166.005493 1067.005005,156.952148 
	C1065.892212,151.370178 1063.219360,148.012161 1057.457886,146.995743 
	C1045.616577,144.906754 1035.674194,139.044159 1026.790405,131.134369 
	C1022.558472,127.366341 1017.988464,123.997803 1013.475098,120.577148 
	C1001.125549,111.217491 988.391296,109.130997 973.232300,114.993347 
	C930.972351,131.336380 887.918457,145.671585 847.362610,166.191925 
	C832.177124,173.875443 817.528687,182.468735 803.678284,192.383881 
	C802.049805,193.549667 800.294373,194.520065 798.674316,195.689606 
	C795.527344,197.961441 791.908508,199.405731 788.480042,197.345657 
	C784.981628,195.243546 784.960266,191.128769 785.169434,187.419388 
	C785.469116,182.104614 787.008667,176.901917 786.716248,171.525070 
	C786.515198,167.828064 786.374878,163.947235 782.764771,161.795700 
	C778.647644,159.341949 774.978394,161.478165 771.686829,163.828262 
	C764.046448,169.283386 757.995972,176.477371 751.288208,182.950745 
	C740.009277,193.835449 728.463989,204.367050 715.178589,212.848862 
	C707.888916,217.502762 700.134888,220.417160 691.521423,218.692062 
	C634.780273,207.328018 589.276001,250.724792 574.498840,287.917358 
	C568.426819,303.200165 566.100769,304.855316 548.660400,305.123108 
	C532.947998,305.364349 517.318237,304.439240 501.835205,302.345612 
	C483.746948,299.899750 468.279480,304.688263 454.459137,316.120789 
	C438.025970,329.714691 421.969177,343.772369 406.342346,358.248657 
	C366.002472,395.618500 327.354858,434.740875 288.529480,473.672760 
	C277.658295,484.573792 269.780334,497.370911 266.125885,512.112305 
	C256.657013,550.307922 230.908234,576.829529 203.961166,603.116882 
	C170.390472,635.865723 133.134293,664.858826 104.173294,702.355347 
	C72.466507,743.406982 54.820583,790.392883 43.255341,840.211304 
	C30.426344,895.473633 24.231398,951.844727 15.180726,1007.738281 
	C13.901959,1015.635498 12.401596,1023.500488 10.700767,1031.300659 
	C9.930806,1034.831787 10.369451,1040.929688 2.645258,1038.396484 
	C2.000000,692.742920 2.000000,347.485901 2.000000,2.114424 
	C668.443115,2.114424 1334.886230,2.114424 2002.000000,2.114424 
	C2002.000000,308.708130 2002.000000,615.416748 2002.000000,923.062683 
	C1995.583618,934.308472 1987.804077,943.673401 1981.306274,953.933838 
	C1979.545776,956.713562 1976.991577,958.863770 1973.913574,960.407288 
	C1964.997437,964.878296 1959.613647,962.170776 1959.131958,952.329468 
	C1958.513916,939.706665 1959.620605,927.027405 1957.945068,913.560913 
	C1957.586060,911.021729 1957.263672,909.356140 1957.104980,906.856995 
	C1956.730591,858.632141 1949.762207,811.824524 1943.984253,764.912231 
	C1941.663940,746.073975 1939.093262,727.263672 1936.957520,708.404846 
	C1935.660278,696.949463 1932.396606,686.500183 1926.192993,676.590027 
	C1864.310791,577.732544 1802.477539,478.844238 1740.697021,379.923004 
	C1717.011719,341.998444 1684.384155,312.502686 1649.254395,285.786957 
	C1577.488037,231.209671 1496.896606,195.817169 1408.525269,178.476471 
	C1385.355957,173.930038 1361.719727,173.101929 1337.981689,174.741882 
	C1321.383545,175.888565 1304.664307,175.105515 1288.002686,174.985275 
	C1274.959839,174.891159 1264.417603,179.457397 1257.511597,190.625641 
	C1252.850586,198.163651 1247.193481,199.115829 1238.882324,197.259399 
	C1221.496826,193.376144 1203.672852,193.535873 1186.240845,196.788147 
	C1154.605591,202.690277 1143.558472,234.207123 1164.195190,259.239868 
	C1177.352295,275.199646 1194.258057,286.410339 1212.974243,294.989044 
	C1240.679443,307.687897 1270.159424,312.828186 1300.240356,314.554230 
	C1310.361328,315.134949 1318.948853,318.354492 1327.426270,323.194946 
	C1404.514160,367.211517 1477.629272,417.270142 1549.622803,469.047699 
	C1588.576660,497.063110 1627.788818,524.727844 1666.574219,552.964905 
	C1683.311523,565.150269 1699.162354,566.165771 1716.773682,556.749329 
	C1723.525391,553.139343 1730.316650,549.492798 1737.494141,546.804871 
	C1744.671753,544.117004 1747.968994,546.345642 1748.815918,553.992798 
	C1749.218994,557.633240 1749.041504,561.319153 1748.875366,564.982849 
	C1748.020142,583.838318 1750.758911,602.134949 1756.606689,620.100159 
	C1761.873901,636.281738 1768.151001,652.069519 1774.260498,667.924194 
	C1781.298096,686.187134 1792.697266,701.028625 1809.590698,711.313293 
	C1849.719971,735.743958 1862.249634,776.870117 1851.176025,819.512390 
	C1846.555664,837.304504 1849.922729,851.625183 1858.627075,866.896179 
	C1871.880371,890.147705 1886.087036,912.518066 1903.917358,932.579041 
	C1910.419067,939.894226 1917.645020,946.256226 1925.563721,951.718994 
	C1934.573608,957.934631 1939.354736,965.836304 1939.086426,976.801758 
	C1939.021240,979.463013 1939.277954,982.142517 1939.978027,984.731262 
	C1942.349609,993.503052 1948.234497,995.676086 1955.730957,990.544678 
	C1958.566772,988.603455 1960.708618,984.498352 1964.945557,986.581909 
	C1969.720459,988.930054 1968.984375,993.821167 1968.905151,997.985657 
	C1968.651489,1011.329651 1966.325684,1024.504272 1964.651733,1037.689331 
	C1961.018188,1066.307129 1960.451538,1094.956299 1961.065308,1111.327393 
	C1962.646118,1061.744385 1972.870850,1001.286682 1992.141357,942.402466 
	C1993.568481,938.041748 1993.290894,931.364868 2001.374146,931.614441 
z"/>
<path fill="#FE5858" opacity="1.000000" stroke="none" 
	d="
M1803.692017,1614.520508 
	C1807.073975,1604.010254 1809.717529,1593.762451 1813.630859,1584.511963 
	C1815.874023,1583.722778 1816.921631,1584.651611 1818.054932,1585.258789 
	C1828.431519,1590.818115 1835.193604,1589.888184 1842.396729,1580.722656 
	C1847.939697,1573.669800 1852.532959,1565.874634 1857.616333,1558.455688 
	C1873.774414,1534.874023 1893.634888,1514.874268 1916.491333,1497.791992 
	C1918.325928,1496.420532 1919.987061,1494.640381 1922.658203,1494.596558 
	C1925.129883,1497.641235 1922.557495,1500.241577 1921.609253,1502.724976 
	C1909.846924,1533.532227 1897.286499,1564.013062 1883.265381,1593.868042 
	C1859.002441,1645.530640 1830.994141,1695.045776 1798.066162,1741.721436 
	C1777.305908,1771.149292 1753.822388,1798.399414 1730.668091,1825.908936 
	C1726.718262,1830.601807 1723.775391,1835.207397 1724.021118,1841.872437 
	C1724.265381,1848.500854 1722.290894,1855.030029 1720.061890,1861.342163 
	C1715.121948,1875.332275 1705.012695,1882.974243 1690.154175,1883.600830 
	C1683.498657,1883.881348 1676.822876,1883.694702 1670.156250,1883.690674 
	C1662.623657,1883.686157 1655.687012,1885.730835 1649.331543,1889.736816 
	C1640.993774,1894.992310 1639.779175,1899.089966 1643.905273,1908.107300 
	C1644.734741,1909.919922 1645.785889,1911.631226 1646.996826,1914.071167 
	C1647.459473,1915.424927 1647.659912,1916.096680 1646.846313,1916.489746 
	C1645.195557,1916.026245 1644.395508,1916.026489 1643.945801,1915.629761 
	C1630.867432,1904.091675 1616.273926,1904.317261 1600.875488,1909.841797 
	C1592.730347,1912.764038 1584.384521,1915.140137 1576.296997,1918.205322 
	C1570.395386,1920.442261 1569.905762,1922.558716 1573.013794,1928.120850 
	C1576.163574,1933.758179 1581.434570,1937.510254 1585.659424,1942.193604 
	C1595.295044,1952.875000 1601.449951,1965.140259 1602.455444,1979.684082 
	C1602.591431,1981.651367 1602.457764,1983.643555 1602.350098,1985.619019 
	C1602.280396,1986.899048 1602.147339,1988.219604 1600.236206,1989.432983 
	C1591.992188,1980.596191 1583.644653,1971.643677 1575.291504,1962.696655 
	C1569.209473,1956.182129 1569.253296,1956.260864 1561.424683,1961.173218 
	C1545.746216,1971.011230 1532.721558,1983.922485 1520.332886,1997.402100 
	C1506.146729,2012.837402 1492.485718,2028.767822 1477.241577,2043.186035 
	C1470.481445,2049.580078 1467.084839,2056.935791 1467.632080,2066.254395 
	C1468.022217,2072.896973 1467.941772,2079.565918 1468.229370,2086.216309 
	C1468.410156,2090.393799 1466.724365,2092.415771 1462.437988,2092.287354 
	C1453.787720,2092.028076 1445.135132,2091.817139 1436.482056,2091.699951 
	C1433.158936,2091.655029 1429.784912,2091.609619 1426.514893,2092.102051 
	C1416.313477,2093.639404 1410.175659,2099.157227 1408.277710,2109.244385 
	C1406.622925,2118.038574 1405.128906,2126.955078 1407.113159,2135.968018 
	C1407.683960,2138.561035 1408.673950,2141.700684 1406.423340,2143.494141 
	C1403.861694,2145.535156 1400.719727,2144.060059 1397.961670,2142.801270 
	C1392.735840,2140.416504 1388.176880,2137.125488 1384.548096,2132.649658 
	C1379.729736,2126.706299 1375.105469,2120.601562 1370.166138,2114.761963 
	C1364.038696,2107.518066 1356.685669,2104.977539 1347.000122,2107.510498 
	C1333.499390,2111.041016 1319.676270,2113.322021 1306.039673,2116.355957 
	C1297.577271,2118.238525 1289.391724,2121.115723 1281.438354,2124.558350 
	C1272.200439,2128.556885 1272.239258,2128.646240 1273.858765,2139.092285 
	C1275.093628,2147.057373 1271.948730,2151.506592 1263.814819,2151.488770 
	C1254.589844,2151.468506 1245.436401,2150.929199 1237.032227,2145.659424 
	C1222.921753,2136.811768 1208.186523,2129.016357 1192.544922,2123.136475 
	C1170.087891,2114.694580 1147.277832,2112.435547 1124.146729,2120.165039 
	C1120.072388,2121.526611 1116.467285,2121.273193 1112.508789,2120.111084 
	C1078.834717,2110.225342 1044.441772,2105.226318 1009.376709,2103.355713 
	C989.723938,2102.307129 970.075745,2101.747070 950.517212,2102.577637 
	C910.354492,2104.283447 870.266785,2107.514648 830.432434,2113.260742 
	C824.513184,2114.114502 818.571472,2114.824707 812.628906,2115.502441 
	C808.582458,2115.964355 806.247620,2114.374756 806.366455,2109.961426 
	C806.447021,2106.970215 806.437256,2104.020020 807.067749,2101.034912 
	C808.104736,2096.125732 808.296143,2091.191895 805.025574,2086.858643 
	C802.146362,2086.876953 801.393372,2089.706055 799.398010,2090.767334 
	C793.165833,2094.082764 786.953491,2095.286621 780.600891,2090.945801 
	C736.179443,2060.592773 687.338684,2038.244263 640.055298,2013.049316 
	C624.892029,2004.969482 610.346985,1999.368652 592.317627,1999.677612 
	C564.995728,2000.145630 539.369873,1990.738403 515.491943,1977.373535 
	C509.692566,1974.127441 504.103607,1970.383545 499.290009,1965.743408 
	C480.736938,1947.859375 458.040344,1940.807739 432.902191,1940.385742 
	C417.248169,1940.122803 401.585693,1940.361938 384.994751,1940.423462 
	C383.686829,1940.584473 383.311157,1940.697754 382.454163,1940.472412 
	C338.699097,1932.414795 307.704285,1907.599731 285.592194,1870.613525 
	C268.598297,1842.188232 259.298981,1811.027100 253.917496,1778.600830 
	C252.122940,1767.787720 248.183212,1758.128906 241.122025,1749.789307 
	C236.273895,1744.063599 230.373535,1738.864624 222.948685,1738.302368 
	C215.787949,1737.759888 214.219452,1733.586548 212.556824,1728.387451 
	C205.861694,1707.451660 198.628235,1686.706055 190.886139,1666.130981 
	C172.464981,1617.175293 151.342926,1569.360107 130.015259,1521.633545 
	C111.405731,1479.989502 92.810501,1438.342896 74.961090,1396.362793 
	C66.579323,1376.649536 63.841232,1356.052734 63.712593,1334.936768 
	C63.655815,1325.616577 64.243088,1316.293701 64.277344,1306.971069 
	C64.294685,1302.253784 65.663574,1300.021851 70.770889,1301.594360 
	C72.641411,1302.170166 74.724915,1302.270630 76.705185,1302.236450 
	C85.106155,1302.091064 89.563972,1297.872314 90.235069,1289.409790 
	C90.903450,1280.981445 88.699295,1272.829712 87.189377,1264.693237 
	C77.167938,1210.691040 59.569271,1159.174683 36.120632,1109.547729 
	C27.863264,1092.071655 19.031658,1074.909546 10.090256,1057.791748 
	C8.265563,1054.298584 6.810502,1050.492065 2.703704,1048.028564 
	C2.000000,1045.222168 2.000000,1042.444458 2.000000,1038.833252 
	C4.439884,1035.515747 5.308788,1032.406860 5.924648,1029.062378 
	C11.467893,998.959839 15.652656,968.645752 20.170048,938.383240 
	C27.689873,888.007202 35.698498,837.748169 52.064571,789.248535 
	C67.679131,742.976074 92.786636,702.678650 127.289871,668.168823 
	C152.716736,642.737122 180.160904,619.450134 205.870270,594.339661 
	C218.938782,581.575562 231.649841,568.324280 242.430328,553.438110 
	C248.753647,544.706665 252.917603,534.923096 256.242249,524.744568 
	C270.861481,479.987030 270.076782,485.680450 297.455383,458.058685 
	C320.682953,434.624847 343.855042,411.127472 367.489655,388.107880 
	C395.385010,360.938416 424.025574,334.559784 453.953156,309.606262 
	C467.950439,297.935364 484.078156,294.800354 501.683136,296.791779 
	C518.535278,298.698120 535.342773,300.988861 552.405457,300.242249 
	C560.504639,299.887878 564.984070,297.324341 568.325134,288.851379 
	C581.378113,255.749374 604.688965,231.898514 637.696228,218.143188 
	C654.724182,211.047028 672.558411,209.557495 690.616577,213.433487 
	C698.413086,215.106918 705.089539,213.154404 711.501099,209.131882 
	C722.841431,202.017151 732.842346,193.237335 742.484741,184.024918 
	C750.671082,176.203735 758.777344,168.298187 767.010620,160.526962 
	C770.896851,156.858902 775.039795,153.420303 780.410339,152.144180 
	C787.997498,150.341385 791.923340,153.193878 792.238586,161.076126 
	C792.557495,169.053436 792.554871,177.048172 790.857788,184.944077 
	C790.315857,187.465271 789.662964,190.148315 792.211121,193.349319 
	C798.691772,189.048691 805.169189,184.615356 811.778076,180.387405 
	C843.081665,160.361389 876.977234,145.654938 911.504761,132.352448 
	C933.558838,123.855629 956.202454,116.801300 977.908813,107.525467 
	C989.382507,102.622398 998.465393,105.704369 1008.016235,110.593681 
	C1015.471436,114.410118 1021.702026,119.996834 1028.038940,125.412315 
	C1034.365112,130.818756 1040.825684,135.997849 1048.582642,139.443146 
	C1056.169678,142.812927 1063.572388,140.467407 1071.764526,139.274384 
	C1072.466309,155.499496 1074.818604,171.301666 1071.603516,187.114426 
	C1068.322632,203.249710 1058.327515,212.715149 1042.224121,215.836166 
	C1026.369629,218.908936 1010.367249,218.032822 994.443665,217.082092 
	C982.461975,216.366730 970.568176,215.976105 958.604553,217.177521 
	C946.699768,218.373032 934.725769,218.315781 922.776245,219.429138 
	C863.483826,224.953522 807.203186,241.179825 752.934448,265.264557 
	C706.844604,285.719482 663.770203,311.651672 620.458618,337.184357 
	C593.492249,353.081329 566.704041,369.294159 539.469177,384.717743 
	C516.636353,397.648315 497.049652,414.474579 478.099640,432.329224 
	C457.513550,451.725342 436.395447,470.556213 415.767853,489.909119 
	C363.675018,538.782776 314.550079,590.275024 275.942688,650.862793 
	C238.245636,710.021912 213.330505,774.111389 201.567764,843.344543 
	C196.993881,870.265442 195.027283,897.463501 191.826965,924.527954 
	C187.182175,963.807983 182.945526,1003.136597 178.592163,1042.450806 
	C176.616394,1060.293579 174.818192,1078.156128 172.864639,1096.001465 
	C171.376389,1109.596191 164.756485,1121.260498 158.590149,1133.059326 
	C155.191147,1139.562866 152.052322,1146.169556 149.588974,1153.076050 
	C146.531235,1161.649048 145.064285,1170.442749 146.375824,1179.563843 
	C152.623535,1223.014282 158.874832,1266.464355 165.090698,1309.919312 
	C165.644180,1313.788818 166.993164,1317.676758 165.405334,1321.691040 
	C161.739746,1321.729736 159.573502,1318.663696 156.316452,1317.796875 
	C149.335556,1315.938599 146.968506,1316.485840 142.964417,1322.360840 
	C140.829315,1325.493408 139.706512,1328.953735 139.760605,1332.700806 
	C139.912949,1343.257812 144.650040,1351.975342 151.544388,1359.467163 
	C155.211517,1363.452148 160.283188,1363.075439 165.237518,1359.879272 
	C167.750275,1358.258423 168.897949,1355.104004 172.646332,1353.855835 
	C176.417603,1357.423340 178.163116,1362.481323 180.136948,1367.222412 
	C192.677338,1397.344116 205.133255,1427.501831 217.439346,1457.719971 
	C230.144745,1488.918823 248.084717,1516.488037 271.272949,1541.096191 
	C294.788544,1566.051880 317.766876,1591.523804 342.209778,1615.581177 
	C373.528503,1646.405762 405.354523,1676.703003 437.745972,1706.412598 
	C464.727844,1731.160278 491.145996,1756.521606 518.005920,1781.403809 
	C537.801697,1799.742188 557.328735,1818.351929 576.111267,1837.720703 
	C580.798340,1842.554077 585.528625,1844.641113 592.099121,1842.314819 
	C595.203796,1841.215698 598.582825,1840.849976 601.861206,1840.290649 
	C614.804260,1838.082764 627.464661,1835.356323 634.986633,1822.429932 
	C641.374878,1836.519043 636.628174,1845.775635 616.747253,1859.509033 
	C616.498962,1861.647827 618.294678,1862.322998 619.597107,1863.134399 
	C665.338257,1891.632690 714.036682,1912.288940 768.090881,1918.340088 
	C787.237671,1920.483521 806.462769,1921.927124 825.652405,1923.687256 
	C866.092163,1927.396118 906.203979,1933.418823 946.100647,1940.905884 
	C973.579895,1946.062622 1000.884644,1952.036743 1027.923584,1959.171997 
	C1032.258545,1960.315918 1036.361084,1960.116577 1040.685303,1958.946533 
	C1075.151489,1949.621094 1110.202881,1943.660889 1145.863037,1941.712891 
	C1160.147217,1940.932495 1172.502075,1937.345825 1181.060425,1924.678101 
	C1184.191284,1920.044189 1189.107910,1916.594727 1194.126343,1914.006104 
	C1198.667114,1911.663940 1199.987671,1908.221680 1200.335205,1903.582153 
	C1200.803101,1897.338989 1201.708862,1891.128418 1202.393677,1885.188843 
	C1204.450806,1884.474854 1205.485107,1885.225952 1206.487793,1886.155884 
	C1208.302368,1887.839111 1209.490601,1891.422607 1212.727539,1889.579712 
	C1215.455200,1888.026855 1214.209106,1884.733521 1214.195068,1882.217041 
	C1214.154175,1874.839478 1210.341187,1868.307617 1208.300049,1859.560669 
	C1223.024780,1869.258545 1229.679199,1883.637085 1239.461914,1896.433350 
	C1242.640015,1892.074463 1245.237061,1887.921875 1248.416382,1884.276978 
	C1254.754883,1877.009888 1257.314331,1877.101929 1264.784424,1884.586670 
	C1266.836548,1878.051636 1267.349243,1871.592651 1268.318970,1865.223999 
	C1268.709839,1862.657349 1268.785156,1859.487549 1272.063721,1858.966553 
	C1274.781738,1858.534546 1275.803101,1861.273926 1277.190308,1863.078369 
	C1279.682617,1866.319824 1279.883301,1872.893066 1284.891724,1872.184082 
	C1289.371094,1871.549805 1289.187744,1865.250610 1291.052002,1861.474487 
	C1295.614380,1852.233398 1300.580933,1849.540283 1311.129517,1851.191284 
	C1317.410645,1852.174438 1323.690430,1852.755249 1330.927612,1851.769409 
	C1332.296021,1851.739746 1332.759399,1851.668823 1333.211426,1852.301025 
	C1332.355713,1857.243286 1331.256470,1861.456665 1332.122803,1865.843994 
	C1333.679810,1873.728271 1338.667358,1876.469971 1345.922852,1873.159302 
	C1348.304443,1872.072632 1350.515503,1870.487427 1352.571411,1868.839233 
	C1355.941650,1866.137695 1358.925049,1862.921753 1362.434326,1860.434448 
	C1366.209473,1857.758667 1368.670776,1852.156738 1373.368286,1852.294067 
	C1378.524536,1852.444580 1379.018188,1858.903320 1381.880737,1862.336548 
	C1390.160156,1872.266602 1398.900146,1874.814209 1411.224609,1870.277710 
	C1416.840088,1868.210815 1422.195801,1865.648804 1427.299561,1862.382690 
	C1521.844482,1801.885010 1612.843262,1736.370361 1702.038940,1668.308105 
	C1731.399536,1645.904175 1760.548218,1623.222534 1789.803345,1600.680420 
	C1793.201782,1598.061768 1796.662720,1595.523926 1800.863281,1592.371826 
	C1803.796509,1599.458740 1801.482910,1605.963135 1801.637939,1613.206299 
	C1801.946045,1614.858521 1802.524414,1615.097534 1803.692017,1614.520508 
z"/>
<path fill="#FE5858" opacity="1.000000" stroke="none" 
	d="
M1963.304199,909.522827 
	C1963.553711,923.681580 1963.554321,937.298584 1963.746704,950.912903 
	C1963.781006,953.336548 1962.578003,956.690857 1965.968018,957.789001 
	C1968.713135,958.678284 1971.053955,956.725403 1973.155273,955.133789 
	C1977.803589,951.612488 1980.164062,946.324402 1983.041016,941.520081 
	C1987.430054,934.191284 1993.090942,928.378418 2001.387695,924.295776 
	C2002.000000,926.133362 2002.000000,928.266663 2002.000000,931.200012 
	C1993.695068,950.573120 1988.635742,970.182190 1984.033813,989.879456 
	C1974.559082,1030.433594 1968.872559,1071.569702 1965.439575,1113.067505 
	C1964.802002,1120.773682 1965.124634,1128.740479 1962.619019,1137.262939 
	C1959.015015,1133.084229 1959.135376,1128.544800 1958.527344,1124.581055 
	C1955.234741,1103.116699 1955.349976,1081.596313 1957.209839,1059.942017 
	C1958.889282,1040.386230 1961.416504,1020.950928 1963.564453,1001.461304 
	C1963.865967,998.725647 1965.372681,995.675964 1962.973511,992.738098 
	C1959.363159,994.058838 1957.592651,997.583984 1954.635010,999.604980 
	C1947.994019,1004.142822 1941.936768,1003.022827 1937.543579,996.281250 
	C1934.934937,992.278137 1933.642578,987.857117 1933.676147,983.046631 
	C1933.701782,979.382141 1933.853760,975.695190 1933.522827,972.057068 
	C1933.059937,966.967163 1931.567749,962.209717 1926.925415,959.224609 
	C1902.189209,943.318604 1885.328125,920.192810 1869.717285,896.097717 
	C1859.400269,880.173828 1850.454590,863.425720 1842.519897,846.134888 
	C1840.515747,841.767944 1840.482056,838.283020 1841.965454,833.870239 
	C1849.179077,812.410767 1852.067505,790.660950 1846.665283,768.145752 
	C1841.659180,747.281250 1830.472534,730.766541 1812.371216,719.754761 
	C1789.693970,705.959351 1774.612671,686.936401 1766.010620,661.867493 
	C1758.672241,640.481567 1749.092651,619.841858 1745.501587,597.281494 
	C1743.625977,585.497498 1741.974854,573.711365 1743.500000,561.692261 
	C1743.938965,558.233032 1744.308594,554.485352 1742.308228,550.381287 
	C1735.607056,552.291504 1729.932373,555.721130 1724.193726,558.834839 
	C1718.311157,562.026611 1712.211182,564.588318 1705.942261,566.859985 
	C1693.100098,571.513611 1681.555786,570.052734 1670.195923,561.787842 
	C1638.156372,538.477478 1605.616089,515.856750 1573.458496,492.707031 
	C1521.024170,454.960571 1468.496948,417.348053 1414.200928,382.299622 
	C1382.027710,361.531647 1349.387329,341.513458 1315.872803,322.947693 
	C1311.945435,320.772034 1308.060181,319.695160 1303.579224,319.614380 
	C1270.948853,319.026123 1239.402344,313.065399 1209.632812,299.358704 
	C1189.755005,290.206451 1172.036865,277.937927 1158.218384,260.665863 
	C1137.554688,234.837601 1149.913818,197.018478 1183.782837,191.385635 
	C1192.721436,189.899048 1201.693970,190.108612 1210.634888,189.814667 
	C1222.218140,189.433823 1234.014648,188.408234 1245.053223,193.653168 
	C1247.545166,194.837204 1249.349854,194.061707 1250.639526,191.384033 
	C1251.930664,188.703125 1253.602051,186.159149 1255.401367,183.777573 
	C1261.977905,175.072220 1270.196167,170.043991 1281.712402,170.198410 
	C1300.355469,170.448410 1319.070435,170.692276 1337.644775,169.379318 
	C1362.040405,167.654892 1386.174438,169.434723 1410.130981,173.078293 
	C1442.846191,178.053986 1474.127808,188.678497 1504.963379,200.355240 
	C1569.050415,224.623550 1627.669067,258.246338 1679.443726,303.465027 
	C1710.000366,330.152649 1735.701416,360.546387 1757.037842,395.300751 
	C1815.399536,490.364777 1874.910767,584.723755 1934.182739,679.226624 
	C1938.221313,685.665710 1940.703369,692.265015 1941.444214,699.593567 
	C1946.325806,747.882751 1954.483032,795.778748 1958.540161,844.174744 
	C1960.207031,864.056580 1962.637207,883.865967 1962.256348,904.781860 
	C1962.794800,906.715149 1963.004028,907.834839 1963.304199,909.522827 
z"/>
<path fill="#FC5858" opacity="1.000000" stroke="none" 
	d="
M1462.895264,1068.762207 
	C1471.034790,1061.943115 1477.577881,1054.341187 1485.890137,1048.610962 
	C1511.035156,1031.276489 1549.445190,1031.616089 1573.287476,1049.619873 
	C1587.560913,1060.397949 1595.456787,1075.395752 1599.348999,1092.244141 
	C1605.729980,1119.866089 1606.251099,1147.673340 1598.041016,1175.146606 
	C1591.470825,1197.131836 1578.727783,1214.422485 1558.350098,1225.624390 
	C1535.802734,1238.019043 1492.223511,1240.751221 1466.658081,1213.260864 
	C1465.759644,1212.294678 1464.714722,1211.464844 1463.382690,1210.246460 
	C1460.773071,1212.811646 1461.754272,1215.942017 1461.743042,1218.659546 
	C1461.649780,1241.322266 1461.692871,1263.985352 1461.682861,1286.648438 
	C1461.681641,1289.313721 1461.592651,1291.979004 1461.572266,1294.644409 
	C1461.547241,1297.933960 1459.813843,1299.482300 1456.621094,1299.580566 
	C1455.622070,1299.611328 1454.622803,1299.638550 1453.623901,1299.674316 
	C1442.803345,1300.061523 1442.332031,1299.697021 1442.328491,1288.897217 
	C1442.302856,1209.243286 1442.313965,1129.589355 1442.321777,1049.935425 
	C1442.322021,1047.936890 1442.366455,1045.935425 1442.485840,1043.941040 
	C1442.566162,1042.597046 1442.997314,1041.353149 1444.184814,1040.526733 
	C1449.870117,1036.570312 1459.032837,1040.756714 1459.622437,1047.697876 
	C1460.044922,1052.670044 1460.065308,1057.675171 1460.400757,1062.656494 
	C1460.547974,1064.843750 1459.596558,1067.427124 1462.895264,1068.762207 
z"/>
<path fill="#FA5859" opacity="1.000000" stroke="none" 
	d="
M425.446472,1062.459595 
	C400.780609,1019.320068 424.006165,967.384766 472.124115,957.838989 
	C503.557068,951.603271 533.178955,955.813721 558.576721,977.329346 
	C561.179199,979.533936 564.730957,981.442017 562.635803,986.315247 
	C557.607239,998.011475 553.095032,997.304626 545.561218,991.014465 
	C530.373901,978.334595 512.892761,971.829102 493.120911,972.462036 
	C475.986420,973.010620 460.067566,977.657349 448.174316,990.846191 
	C429.457764,1011.601501 428.310181,1048.959106 461.528992,1066.048218 
	C474.661774,1072.804199 488.699036,1076.949951 502.460846,1081.905518 
	C512.170288,1085.401855 521.978516,1088.573120 531.396423,1092.866455 
	C567.223328,1109.198486 577.402405,1135.840088 569.372803,1173.143921 
	C560.579346,1213.996826 523.680603,1234.173462 492.717834,1234.358521 
	C487.054840,1234.392334 481.391174,1234.399902 475.728241,1234.359131 
	C448.895081,1234.165405 426.827850,1223.046143 408.074493,1204.570312 
	C402.644196,1199.220337 402.792572,1196.949951 407.836395,1191.089844 
	C411.661041,1186.646362 415.450897,1186.217407 420.820221,1190.749756 
	C429.491241,1198.069214 437.972473,1205.563110 448.605865,1210.011719 
	C474.710236,1220.932495 500.555176,1221.449585 525.162842,1206.340576 
	C545.367554,1193.934814 555.971497,1168.038330 551.450012,1144.769287 
	C548.557556,1129.883911 538.857788,1120.159668 526.218445,1112.967163 
	C513.959717,1105.991211 500.368958,1102.387329 487.112518,1097.960327 
	C474.804108,1093.849854 462.308685,1090.208008 450.763397,1084.127075 
	C440.931213,1078.948364 432.113525,1072.498169 425.446472,1062.459595 
z"/>
<path fill="#FA5859" opacity="1.000000" stroke="none" 
	d="
M796.462402,1234.916992 
	C788.352661,1234.183105 780.686462,1233.758057 773.578125,1230.518433 
	C755.778687,1222.406616 746.809753,1208.381348 745.663513,1189.045044 
	C744.481934,1169.114624 754.120056,1155.457642 770.706970,1145.913208 
	C785.944031,1137.145508 802.722412,1133.100586 819.861755,1130.187500 
	C833.318054,1127.900391 846.902954,1127.047241 860.499146,1126.290894 
	C867.866577,1125.880859 868.256775,1125.933594 868.185547,1119.114258 
	C868.029785,1104.194458 868.511658,1089.202393 861.816589,1075.111816 
	C855.185181,1061.155273 844.172546,1053.941284 829.171875,1052.153931 
	C813.646729,1050.303833 799.422607,1054.116211 786.383850,1062.424805 
	C781.065613,1065.813599 776.152771,1069.834351 771.009949,1073.503906 
	C765.737549,1077.265625 762.398193,1077.077271 758.836670,1072.947144 
	C754.896912,1068.378296 755.165527,1065.855103 760.369751,1061.261963 
	C784.011353,1040.396851 811.184692,1031.545654 842.490540,1037.859497 
	C860.040649,1041.399170 872.395386,1051.988525 879.707092,1068.148926 
	C884.124146,1077.911499 886.400757,1088.303467 886.388245,1099.140747 
	C886.341248,1139.766113 886.369629,1180.391602 886.368958,1221.016968 
	C886.368958,1222.015991 886.436035,1223.022461 886.338989,1224.012451 
	C886.033142,1227.130981 887.146729,1230.909668 882.112061,1231.592896 
	C876.188477,1232.396851 873.230042,1230.886230 871.714966,1225.174561 
	C870.870972,1221.992920 870.878662,1218.592651 870.142700,1215.373047 
	C869.432251,1212.265747 870.673706,1208.613037 866.725769,1205.121216 
	C848.087463,1222.923340 826.640625,1235.395264 798.792969,1235.047485 
	C797.603088,1235.161865 797.293518,1234.990967 796.462402,1234.916992 
z"/>
<path fill="#FD5858" opacity="1.000000" stroke="none" 
	d="
M1381.680664,1126.000244 
	C1381.680664,1156.642822 1381.680908,1186.285400 1381.680054,1215.927979 
	C1381.680054,1218.259399 1381.722900,1220.592285 1381.661377,1222.922119 
	C1381.446167,1231.074585 1381.124878,1231.441284 1374.365479,1231.651733 
	C1366.366943,1231.900757 1365.046265,1230.867065 1364.300293,1223.081055 
	C1363.888306,1218.781616 1363.869263,1214.445679 1363.622925,1210.129028 
	C1363.476807,1207.567017 1363.950928,1204.740601 1360.536621,1202.877441 
	C1356.932617,1204.904541 1354.284058,1208.367065 1351.242920,1211.323853 
	C1329.967651,1232.008667 1304.285645,1238.383179 1275.801392,1233.169922 
	C1256.009033,1229.547485 1242.503418,1217.257935 1235.342285,1198.357056 
	C1231.660278,1188.638550 1229.646118,1178.560547 1229.650146,1168.115112 
	C1229.665649,1128.813721 1229.653931,1089.512329 1229.662109,1050.210938 
	C1229.662598,1048.213745 1229.740112,1046.216187 1229.808228,1044.219604 
	C1229.901733,1041.472290 1231.246338,1039.920410 1234.080444,1039.818848 
	C1235.078613,1039.783203 1236.076050,1039.727905 1237.073853,1039.683105 
	C1247.949707,1039.194092 1248.317261,1039.464844 1248.329712,1050.355225 
	C1248.370850,1086.326050 1248.366699,1122.296753 1248.335693,1158.267578 
	C1248.328003,1167.297974 1249.421997,1176.190430 1251.718384,1184.895142 
	C1258.874268,1212.021362 1279.413208,1221.358154 1303.966187,1219.171753 
	C1325.988281,1217.210693 1343.031006,1205.237915 1357.319702,1188.884277 
	C1360.897705,1184.789185 1361.728882,1180.332153 1361.714233,1175.141113 
	C1361.598511,1134.174805 1361.641602,1093.207886 1361.658813,1052.241211 
	C1361.664307,1039.068970 1362.055908,1038.886108 1375.040527,1039.613647 
	C1379.548706,1039.866333 1381.819336,1041.277344 1381.679688,1046.065796 
	C1381.504883,1052.055176 1381.677124,1058.054565 1381.678711,1064.049561 
	C1381.684204,1084.366455 1381.680664,1104.683228 1381.680664,1126.000244 
z"/>
<path fill="#FD5858" opacity="1.000000" stroke="none" 
	d="
M629.651184,1098.001953 
	C629.649780,1088.004395 629.697571,1079.005859 629.633972,1070.008301 
	C629.561890,1059.798096 629.518555,1059.790649 618.911316,1059.690186 
	C613.912964,1059.642944 608.913940,1059.658081 603.915771,1059.596558 
	C599.917297,1059.547241 597.918701,1057.643921 597.700317,1053.476807 
	C597.482300,1049.315552 599.366028,1047.078857 603.229919,1046.706909 
	C608.857117,1046.165161 614.518921,1045.970703 620.168579,1045.678345 
	C629.409119,1045.199951 629.983154,1045.267212 630.818298,1035.715820 
	C632.381714,1017.837341 633.202087,999.893982 634.345764,981.978455 
	C634.854187,974.015198 636.880005,971.850098 643.443420,971.707397 
	C647.491760,971.619385 649.821228,973.001221 649.635986,977.413818 
	C649.538269,979.741272 649.676697,982.078003 649.677551,984.410522 
	C649.683899,1000.740356 649.663025,1017.070190 649.688965,1033.400024 
	C649.708374,1045.592529 649.733765,1045.616699 661.493103,1045.647949 
	C675.156738,1045.684204 688.822205,1045.551025 702.483521,1045.734619 
	C709.088928,1045.823242 709.739929,1047.029785 709.689880,1053.445679 
	C709.651733,1058.344482 707.243896,1059.722778 702.830811,1059.687744 
	C690.167786,1059.587280 677.503296,1059.668945 664.839417,1059.686035 
	C661.840210,1059.690186 658.838257,1059.812378 655.842529,1059.718750 
	C651.766785,1059.591553 649.550964,1061.204956 649.726013,1065.536133 
	C649.820068,1067.864136 649.685242,1070.200562 649.684998,1072.533203 
	C649.681091,1110.525146 649.682129,1148.516968 649.682312,1186.508911 
	C649.682312,1187.508667 649.705017,1188.508911 649.684265,1189.508301 
	C649.084656,1218.428101 673.806274,1224.372925 693.230042,1213.876099 
	C696.143616,1212.301758 698.760498,1210.173706 701.494263,1208.272339 
	C705.255676,1205.656250 708.311707,1206.241821 710.659241,1210.221069 
	C712.665894,1213.622559 715.348083,1216.660400 710.849365,1220.563965 
	C692.933289,1236.110229 667.493958,1238.261230 649.898621,1230.491577 
	C636.559448,1224.601318 631.885681,1212.467285 630.444458,1198.941040 
	C629.740662,1192.335571 629.703674,1185.639893 629.683960,1178.984131 
	C629.605164,1152.323486 629.651245,1125.662354 629.651184,1098.001953 
z"/>
<path fill="#FC5858" opacity="1.000000" stroke="none" 
	d="
M1107.343384,1192.519653 
	C1107.544312,1151.006592 1107.628296,1110.040649 1107.610107,1069.074707 
	C1107.606079,1059.873535 1107.442261,1059.848389 1097.978638,1059.703491 
	C1093.316650,1059.632202 1088.652954,1059.662720 1083.990112,1059.668213 
	C1079.721191,1059.673340 1075.870605,1059.299927 1075.733154,1053.557373 
	C1075.612549,1048.515503 1077.272827,1046.867676 1084.113281,1046.390869 
	C1089.754395,1045.997559 1095.416016,1045.641113 1101.064575,1045.694458 
	C1105.996948,1045.741211 1107.974854,1043.956543 1108.456543,1038.790405 
	C1110.215332,1019.929382 1111.312012,1001.033691 1112.348389,982.128418 
	C1112.803711,973.821228 1115.244995,971.455383 1122.288452,971.708801 
	C1126.088745,971.845581 1127.679688,973.558777 1127.627563,977.244690 
	C1127.571045,981.239929 1127.677490,985.237305 1127.680664,989.233704 
	C1127.693237,1005.220764 1127.602051,1021.208679 1127.737061,1037.194580 
	C1127.806030,1045.359741 1128.000977,1045.530518 1136.286621,1045.606323 
	C1150.940186,1045.740601 1165.597168,1045.554321 1180.250122,1045.723999 
	C1187.031250,1045.802490 1187.669189,1046.895264 1187.691040,1053.200684 
	C1187.707397,1057.914062 1185.688721,1059.728271 1181.084839,1059.687744 
	C1168.429565,1059.576172 1155.772583,1059.670044 1143.116211,1059.688354 
	C1140.118774,1059.692749 1137.114380,1059.856445 1134.125488,1059.705200 
	C1129.411621,1059.466675 1127.630127,1061.648804 1127.683594,1066.252808 
	C1127.814819,1077.575195 1127.688354,1088.900269 1127.686279,1100.224365 
	C1127.681030,1129.867188 1127.706177,1159.509888 1127.674683,1189.152710 
	C1127.666748,1196.611572 1128.463379,1203.800903 1133.447388,1209.843750 
	C1141.197876,1219.240723 1156.683594,1221.599976 1169.067383,1215.002319 
	C1172.861816,1212.980591 1176.266602,1210.229126 1179.855591,1207.820557 
	C1183.365356,1205.465210 1186.156738,1206.272095 1188.119995,1209.883789 
	C1189.878174,1213.118286 1194.057007,1216.136353 1189.230591,1220.146851 
	C1183.285034,1225.087280 1176.752197,1229.044434 1169.483154,1231.654663 
	C1158.508179,1235.595581 1147.097534,1235.600830 1135.979492,1233.282227 
	C1119.895630,1229.928101 1111.098022,1218.875977 1108.437012,1200.613525 
	C1108.197998,1198.973022 1108.249268,1197.290283 1107.998779,1194.815918 
	C1107.617798,1193.692139 1107.403687,1193.379517 1107.343384,1192.519653 
z"/>
<path fill="#FC5858" opacity="1.000000" stroke="none" 
	d="
M1009.880981,1037.475098 
	C1023.036682,1035.077759 1035.208740,1035.309570 1047.052979,1039.765869 
	C1050.037476,1040.888794 1054.013062,1041.410889 1053.998657,1045.781616 
	C1053.984497,1050.102417 1053.321899,1054.507446 1050.672729,1058.053711 
	C1049.125000,1060.125488 1046.530396,1059.467896 1044.161377,1058.925781 
	C1039.307373,1057.815063 1034.599609,1056.249512 1029.605469,1055.523315 
	C1008.575195,1052.465210 991.488281,1059.120483 978.900818,1076.127808 
	C968.218872,1090.560303 961.560730,1106.218506 962.112427,1125.063843 
	C963.018738,1156.023804 962.359497,1187.029419 962.354065,1218.015869 
	C962.353638,1220.681030 962.268860,1223.346680 962.290649,1226.011353 
	C962.320007,1229.609009 960.844177,1231.688843 956.987915,1231.611694 
	C954.324463,1231.558472 951.658264,1231.557617 948.994812,1231.610596 
	C945.125427,1231.687500 943.676392,1229.580811 943.709351,1225.994019 
	C943.730774,1223.662476 943.646484,1221.330200 943.646301,1218.998169 
	C943.642273,1163.355957 943.643127,1107.713623 943.643921,1052.071411 
	C943.643921,1050.738647 943.618835,1049.404785 943.661560,1048.073242 
	C943.920532,1040.000732 944.439026,1039.495728 952.179932,1039.683350 
	C959.098083,1039.850952 959.667419,1040.427856 960.343811,1047.946167 
	C960.789978,1052.904663 961.316040,1057.857300 961.662537,1062.822754 
	C962.006104,1067.744751 961.124023,1072.743530 962.445068,1078.235352 
	C966.520996,1076.934326 966.890442,1073.222290 968.442993,1070.607178 
	C977.935120,1054.617798 990.003967,1041.856689 1009.880981,1037.475098 
z"/>
<path fill="#CE5B5D" opacity="1.000000" stroke="none" 
	d="
M1803.460205,1614.228760 
	C1803.880737,1615.437378 1803.858765,1616.802246 1803.419067,1618.015625 
	C1803.116943,1618.849243 1802.148438,1620.138428 1801.627441,1620.070923 
	C1799.688232,1619.819214 1800.436401,1618.176025 1800.547485,1616.980591 
	C1800.607422,1616.334229 1800.908203,1615.710327 1801.350830,1614.595947 
	C1802.014038,1614.183716 1802.426636,1614.252075 1803.460205,1614.228760 
z"/>
<path fill="#FE5858" opacity="1.000000" stroke="none" 
	d="
M1646.902100,1915.117310 
	C1647.848267,1915.461304 1648.507690,1916.240601 1647.765747,1917.113159 
	C1647.568359,1917.345215 1646.709961,1917.014893 1645.993652,1916.576904 
	C1646.069946,1915.967896 1646.307495,1915.724731 1646.902100,1915.117310 
z"/>
<path fill="#CE5B5D" opacity="1.000000" stroke="none" 
	d="
M1963.562988,909.482117 
	C1963.057983,908.997192 1962.628418,907.928894 1962.205811,906.279602 
	C1962.687866,906.765320 1963.163086,907.832031 1963.562988,909.482117 
z"/>
<path fill="#7C6469" opacity="1.000000" stroke="none" 
	d="
M796.132812,1235.226807 
	C796.273987,1235.042358 796.606995,1235.070679 797.426331,1235.215820 
	C797.912659,1235.332642 797.135986,1235.638916 797.135986,1235.638916 
	C797.135986,1235.638916 796.324707,1235.439453 796.132812,1235.226807 
z"/>
<path fill="#FE5858" opacity="1.000000" stroke="none" 
	d="
M1332.173340,1852.109985 
	C1332.757324,1850.816284 1333.228882,1851.179688 1333.316406,1852.674561 
	C1333.199829,1853.004150 1332.514282,1852.409424 1332.173340,1852.109985 
z"/>
<path fill="#FE5858" opacity="1.000000" stroke="none" 
	d="
M1207.037842,1857.239746 
	C1206.927002,1857.305176 1207.148560,1857.174194 1207.037842,1857.239746 
z"/>
<path fill="#79656B" opacity="1.000000" stroke="none" 
	d="
M1107.389648,1192.231323 
	C1107.605957,1192.302856 1107.714844,1192.633057 1107.827759,1193.483887 
	C1107.399780,1193.591064 1107.216553,1193.086182 1107.389648,1192.231323 
z"/>
<path fill="#7C6469" opacity="1.000000" stroke="none" 
	d="
M382.190430,1940.326050 
	C382.330017,1940.135986 382.687195,1940.138184 383.553406,1940.305908 
	C384.062469,1940.471191 383.242432,1940.707886 383.242432,1940.707886 
	C383.242432,1940.707886 382.407990,1940.518311 382.190430,1940.326050 
z"/>
<path fill="#57686F" opacity="1.000000" stroke="none" 
	d="
M181.660400,1461.806152 
	C180.457474,1457.916626 178.807404,1454.719727 178.831528,1451.535400 
	C178.948196,1436.143921 171.920700,1423.393677 164.562759,1410.687988 
	C163.763870,1409.308594 162.822571,1407.851685 163.676361,1405.234131 
	C168.808563,1405.492798 171.499191,1409.408203 173.783493,1413.057251 
	C177.121811,1418.389648 180.074005,1424.024048 182.614914,1429.783936 
	C189.582703,1445.578613 195.512665,1461.841919 204.166153,1476.868408 
	C204.425247,1477.318237 204.136673,1478.083618 204.060944,1479.492676 
	C194.300858,1476.617798 187.082687,1471.008667 181.660400,1461.806152 
z"/>
<path fill="#57686F" opacity="1.000000" stroke="none" 
	d="
M154.470383,1442.812988 
	C153.158234,1443.715698 151.812225,1443.100220 150.633362,1441.668701 
	C144.947769,1434.764160 139.087265,1427.996216 133.604340,1420.934937 
	C130.049667,1416.357178 133.456696,1408.789185 139.251526,1408.057739 
	C143.600845,1407.508789 144.769897,1410.846313 145.777817,1414.120361 
	C148.603607,1423.299683 151.415436,1432.483398 154.575928,1442.321533 
	C154.919083,1442.977661 154.007935,1442.818481 154.470383,1442.812988 
z"/>
<path fill="#57686F" opacity="1.000000" stroke="none" 
	d="
M154.855072,1442.939941 
	C154.824570,1443.091553 154.730042,1443.205566 154.784180,1443.063477 
	C154.932831,1442.807495 154.791046,1442.902222 154.855072,1442.939941 
z"/>
<path fill="#4D6971" opacity="1.000000" stroke="none" 
	d="
M1502.013428,1055.589966 
	C1513.324219,1051.322998 1524.274536,1050.627197 1535.216187,1052.612793 
	C1555.050293,1056.212158 1569.476440,1067.193359 1576.281982,1086.403564 
	C1586.956299,1116.534302 1587.477295,1147.036621 1576.567017,1177.231812 
	C1569.228638,1197.541260 1555.649048,1212.330322 1533.843994,1216.702393 
	C1502.790771,1222.928955 1481.021484,1215.052246 1465.383301,1193.792603 
	C1462.914307,1190.436035 1461.615845,1187.026611 1461.633057,1182.785645 
	C1461.750732,1153.816040 1461.732666,1124.845581 1461.648438,1095.875732 
	C1461.636353,1091.713501 1462.406006,1087.970459 1465.053223,1084.699585 
	C1474.996704,1072.412720 1485.907593,1061.341309 1502.013428,1055.589966 
z"/>
<path fill="#4E6971" opacity="1.000000" stroke="none" 
	d="
M782.484680,1156.250977 
	C797.616394,1147.777832 813.595154,1144.631958 829.750488,1142.429443 
	C839.927979,1141.041748 850.221008,1140.344482 860.486877,1139.817383 
	C867.501160,1139.457275 868.111694,1140.142212 868.220459,1146.864014 
	C868.414185,1158.834229 868.226013,1170.810303 868.319336,1182.782837 
	C868.346863,1186.302856 867.390259,1189.148438 864.834778,1191.713989 
	C846.235596,1210.386108 824.944336,1222.590820 797.465576,1220.271973 
	C783.866516,1219.124390 773.213928,1213.355591 767.604004,1200.414307 
	C762.328247,1188.243774 762.975159,1176.463989 771.243774,1165.602905 
	C774.114014,1161.832642 777.912292,1159.148804 782.484680,1156.250977 
z"/>
</svg>